<?xml version="1.0" encoding="utf-8"?>
<!-- Generator: Adobe Illustrator 16.0.0, SVG Export Plug-In . SVG Version: 6.00 Build 0)  -->
<!DOCTYPE svg PUBLIC "-//W3C//DTD SVG 1.1//EN" "http://www.w3.org/Graphics/SVG/1.1/DTD/svg11.dtd">
<svg version="1.1" id="Livello_1" xmlns="http://www.w3.org/2000/svg" xmlns:xlink="http://www.w3.org/1999/xlink" x="0px" y="0px"
	 width="164.666px" height="164px" viewBox="0 0 164.666 164" enable-background="new 0 0 164.666 164" xml:space="preserve">
<g>
	<g>
		<g>
			<g>
				<linearGradient id="SVGID_1_" gradientUnits="userSpaceOnUse" x1="148.1387" y1="128.2485" x2="24.1576" y2="50.3629">
					<stop  offset="0.0095" style="stop-color:#2FAC66"/>
					<stop  offset="1" style="stop-color:#2A5B8E"/>
				</linearGradient>
				<path fill="url(#SVGID_1_)" d="M129.391,52.091c0,0-16.54,0-26.051,0c2.871,0,7.137,4.179,7.137,10.153c0,2.823,0,4.921,0,4.921
					h18.914c0.464,0.035,1.611,0.518,2.018,0.855l8.037,8.042c0.294,0.349,0.776,1.509,0.818,2.026v3.571
					c-0.051,0.117-0.134,0.266-0.204,0.362l-2.426,1.442c-3.196,1.903-5.149,5.097-5.227,8.547
					c-0.064,3.458,1.754,6.728,4.877,8.766l2.648,1.722c0.127,0.149,0.272,0.423,0.331,0.598v3.123
					c-0.042,0.463-0.524,1.611-0.852,2.003l-8.048,8.051c-0.362,0.294-1.51,0.776-2.027,0.818l-26.142-0.003V63.9
					c0-6.509-5.304-11.809-11.811-11.809H39.541c-4.353,0-9.54,2.15-12.624,5.228l-8.085,8.09
					c-3.078,3.079-5.227,8.267-5.227,12.623v28.188c0,4.354,2.149,9.55,5.227,12.627l8.085,8.08
					c3.084,3.079,8.271,5.227,12.624,5.227h29.282c6.51,0,11.81-5.289,11.81-11.799V10.566c0,0-15.072,1.913-15.072,16.518
					c0,21.812,0,90.006,0,90.006H39.541c-0.455-0.039-1.617-0.521-2.008-0.859l-8.042-8.048c-0.302-0.351-0.777-1.499-0.819-2.018
					V78.032c0.042-0.46,0.518-1.62,0.856-2.011l8.049-8.042c0.347-0.296,1.509-0.778,2.022-0.813h48.523v53.189
					c0,6.51,5.3,11.799,11.807,11.799h29.463c4.363,0,9.55-2.147,12.629-5.227l8.087-8.083c3.08-3.074,5.229-8.271,5.229-12.624
					v-3.322c0-3.733-1.657-7.704-4.271-10.562c2.615-2.813,4.271-6.687,4.271-10.417v-3.887c0-4.356-2.149-9.544-5.229-12.623
					l-8.087-8.088C138.94,54.242,133.754,52.091,129.391,52.091z"/>
			</g>
			<linearGradient id="SVGID_2_" gradientUnits="userSpaceOnUse" x1="58.5068" y1="59.6284" x2="65.7129" y2="59.6284">
				<stop  offset="0" style="stop-color:#000000;stop-opacity:0"/>
				<stop  offset="0.9905" style="stop-color:#000000"/>
			</linearGradient>
			<rect x="58.652" y="52.091" opacity="0.6" fill="url(#SVGID_2_)" width="6.907" height="15.074"/>
			
				<linearGradient id="SVGID_3_" gradientUnits="userSpaceOnUse" x1="4322.1748" y1="89.4497" x2="4329.3799" y2="89.4497" gradientTransform="matrix(-1 0 0 -1 4410.0449 149.0781)">
				<stop  offset="0" style="stop-color:#000000;stop-opacity:0"/>
				<stop  offset="0.9905" style="stop-color:#000000"/>
			</linearGradient>
			<rect x="80.818" y="52.091" opacity="0.6" fill="url(#SVGID_3_)" width="6.906" height="15.074"/>
		</g>
		<g>
			<path d="M28.584,149.241l5.077,3.501v0.655c0,0-5.047-3.43-5.593-3.83v-0.581l5.593-3.694v0.629L28.584,149.241z"/>
			<path d="M46.43,154.304h-0.563v-0.679c0,0-1.326,0.824-2.793,0.824c-0.999,0-2.721-0.146-2.721-4.061
				c0-2.773,0.74-4.288,3.382-4.288c0.757,0,1.726,0.133,2.132,0.194v-3.271h0.563V154.304z M45.866,153.093v-6.289
				c-0.423-0.048-1.502-0.191-2.132-0.191c-2.285,0-2.818,1.378-2.818,3.825c0,3.202,1.256,3.491,2.157,3.491
				C44.461,153.929,45.866,153.093,45.866,153.093z"/>
			<path d="M55.005,153.784l0.03,0.521c0,0-1.805,0.146-2.98,0.146c-2.399-0.013-3.029-1.551-3.029-4.179
				c0-3.188,1.417-4.17,3.253-4.17c1.987,0,3.065,1.079,3.065,3.866v0.533h-5.725c0,2.228,0.581,3.429,2.453,3.429
				C53.199,153.929,55.005,153.784,55.005,153.784z M54.744,149.981c0-2.461-0.787-3.368-2.466-3.368
				c-1.611,0-2.659,0.919-2.659,3.368H54.744z"/>
			<path d="M57.394,146.247l2.352,7.537h0.695l2.369-7.537h0.594l-2.531,8.058h-1.576l-2.501-8.058H57.394z"/>
			<path d="M70.918,153.784l0.03,0.521c0,0-1.805,0.146-2.979,0.146c-2.4-0.013-3.03-1.551-3.03-4.179
				c0-3.188,1.418-4.17,3.254-4.17c1.981,0,3.064,1.079,3.064,3.866v0.533h-5.724c0,2.228,0.581,3.429,2.452,3.429
				C69.113,153.929,70.918,153.784,70.918,153.784z M70.659,149.981c0-2.461-0.789-3.368-2.467-3.368
				c-1.611,0-2.659,0.919-2.659,3.368H70.659z"/>
			<path d="M73.678,142.538h0.562v11.767h-0.562V142.538z"/>
			<path d="M83.285,150.125c0,3.016-0.581,4.324-3.243,4.324c-2.676,0-3.302-1.115-3.302-4.351c0-2.979,0.916-3.998,3.302-3.998
				C82.22,146.101,83.285,147.193,83.285,150.125z M82.683,150.125c0-2.57-0.85-3.513-2.641-3.513c-2.062,0-2.705,0.773-2.705,3.486
				c0,2.774,0.34,3.83,2.705,3.83C82.414,153.929,82.683,152.693,82.683,150.125z"/>
			<path d="M85.882,146.247h0.56v0.679c0,0,1.32-0.824,2.786-0.824c1.974,0,2.762,1.309,2.762,4.061
				c0,2.979-0.921,4.288-3.418,4.288c-0.87,0-1.756-0.146-2.13-0.229v3.791h-0.56V146.247z M86.441,147.471v6.239
				c0.361,0.062,1.26,0.219,2.13,0.219c2.085,0,2.823-1.042,2.823-3.816c0-2.558-0.775-3.5-2.167-3.5
				C87.846,146.613,86.441,147.471,86.441,147.471z"/>
			<path d="M94.585,154.304v-8.058h0.569v0.644c0,0,1.249-0.789,2.641-0.789c0.353,0,0.656,0.037,0.934,0.084
				c0.533,0.098,0.898,0.316,1.163,0.691c0.22-0.097,1.734-0.775,3.03-0.775c2.191,0,2.641,0.885,2.641,4.012v4.191h-0.568v-4.156
				c0-2.738-0.291-3.535-2.072-3.535c-1.406,0-2.714,0.748-2.776,0.797c0.23,0.606,0.292,1.492,0.292,2.703v4.191h-0.569v-4.156
				c0-2.738-0.29-3.535-2.073-3.535c-1.439,0-2.641,0.81-2.641,0.81v6.882H94.585z"/>
			<path d="M114.013,153.784l0.035,0.521c0,0-1.806,0.146-2.98,0.146c-2.41-0.013-3.029-1.551-3.029-4.179
				c0-3.188,1.419-4.17,3.249-4.17c1.985,0,3.064,1.079,3.064,3.866v0.533h-5.719c0,2.228,0.581,3.429,2.447,3.429
				C112.208,153.929,114.013,153.784,114.013,153.784z M113.758,149.981c0-2.461-0.788-3.368-2.471-3.368
				c-1.611,0-2.654,0.919-2.654,3.368H113.758z"/>
			<path d="M116.862,154.304v-8.058h0.569v0.644c0,0,1.431-0.789,2.822-0.789c2.193,0,2.643,0.885,2.643,4.012v4.191h-0.57v-4.156
				c0-2.738-0.29-3.535-2.072-3.535c-1.44,0-2.822,0.81-2.822,0.81v6.882H116.862z"/>
			<path d="M126.875,146.756v4.228c0,2.399,0.181,2.969,1.487,2.969c0.449,0,1.576-0.133,1.576-0.133l0.049,0.521
				c0,0-1.065,0.122-1.625,0.122c-1.466,0-2.048-0.545-2.048-2.869v-4.837h-1.271v-0.51h1.271v-2.63h0.561v2.63h2.941v0.51H126.875z
				"/>
			<path d="M135.283,145.92v-0.629l5.588,3.694v0.581c-0.547,0.4-5.588,3.83-5.588,3.83v-0.655l5.067-3.501L135.283,145.92z"/>
		</g>
	</g>
</g>
</svg>
